<svg width="76" height="60" viewBox="0 0 76 60" fill="none" xmlns="http://www.w3.org/2000/svg">
<g clip-path="url(#clip0_13_66)" filter="url(#filter0_d_13_66)">
<path d="M69.0059 42.0066H69.0019V37.4579C69.0019 34.4749 66.5947 32.0438 63.6208 32.0055L61.0262 26.8175C59.5422 23.8481 56.558 22.0034 53.2381 22.0034H46.9985V18.8989C46.9985 15.0959 43.9045 12.0019 40.1014 12.0019H37.9972V8.96528C40.244 8.71745 41.9978 6.80834 41.9978 4.49665C41.9978 2.01709 39.9805 0 37.5011 0H25.9994C25.4492 0 25.0033 0.445866 25.0033 0.996127C25.0033 1.54639 25.4492 1.99226 25.9994 1.99226H37.5011C38.882 1.99226 40.0055 3.11576 40.0055 4.49665C40.0055 5.87742 38.882 7.00092 37.5011 7.00092H16.498C15.1171 7.00092 13.9936 5.87742 13.9936 4.49665C13.9936 3.11576 15.1171 1.99226 16.498 1.99226H21.332C21.8822 1.99226 22.3281 1.54639 22.3281 0.996127C22.3281 0.445866 21.8822 0 21.332 0H16.498C14.0184 0 12.0013 2.01723 12.0013 4.49665C12.0013 6.80834 13.755 8.71745 16.0019 8.96528V12.0019H13.8975C10.0944 12.0019 7.00047 15.0959 7.00047 18.8989V42.0065H6.99649C5.34424 42.0066 4 43.3508 4 45.0029C4 46.655 5.34424 47.9994 6.99649 47.9994H11.6759C12.8221 50.4185 15.2788 52 17.9981 52C20.7845 52 23.1951 50.3624 24.3198 47.9994H43.9795C44.5298 47.9994 44.9757 47.5536 44.9757 47.0033C44.9757 46.453 44.5298 46.0072 43.9795 46.0072H24.9221C25.0187 45.3388 25.0206 44.6805 24.9221 43.9988H51.0803C50.9838 44.6672 50.9819 45.3255 51.0803 46.0072H48.6469C48.0966 46.0072 47.6507 46.453 47.6507 47.0033C47.6507 47.5536 48.0966 47.9994 48.6469 47.9994H51.6827C52.8072 50.3624 55.2178 52 58.0043 52C60.7908 52 63.2013 50.3624 64.3259 47.9994H69.006C70.6581 47.9994 72.0025 46.6552 72.0025 45.0029C72.0025 43.3507 70.6581 42.0066 69.0059 42.0066ZM59.2442 27.7083L61.393 32.0049H54.381C53.0677 32.0049 51.9992 30.9364 51.9992 29.6231V23.9957H53.2381C55.7984 23.9957 58.0997 25.4181 59.2442 27.7083ZM17.994 8.99331H36.0049V12.0019H17.994V8.99331ZM13.8975 13.9941H40.1015C42.806 13.9941 45.0063 16.1944 45.0063 18.8989V32.0049H35.9988C36.0005 31.2481 35.9873 30.2061 35.9951 27.3145C37.1978 26.5444 37.9972 25.1974 37.9972 23.6664V21.9954H38.0012C39.6533 21.9954 40.9977 20.6512 40.9977 18.9989C40.9977 17.3467 39.6533 16.0026 38.0012 16.0026H15.9978C14.3455 16.0026 13.0013 17.3468 13.0013 18.9991C13.0013 20.6513 14.3454 21.9956 15.9978 21.9956H16.0017V23.6665C16.0017 25.1594 16.7694 26.5285 18.0021 27.3157V32.0051H8.99273V18.8991C8.99273 16.1945 11.193 13.9941 13.8975 13.9941ZM33.6672 26.004C32.3782 26.004 31.3294 24.9553 31.3294 23.6663V21.9953H36.0048V23.6663C36.0049 24.9554 34.9562 26.004 33.6672 26.004ZM24.6617 21.9954H29.3371V23.6664C29.3371 24.9554 28.2884 26.0041 26.9994 26.0041C25.7104 26.0041 24.6616 24.9554 24.6616 23.6664L24.6617 21.9954ZM15.9978 20.0032C15.444 20.0032 14.9935 19.5527 14.9935 18.9989C14.9935 18.4452 15.444 17.9947 15.9978 17.9947H38.0012C38.5549 17.9947 39.0054 18.4452 39.0054 18.9989C39.0054 19.5527 38.5549 20.0032 38.0012 20.0032H15.9978ZM17.994 21.9954H22.6694V23.6664C22.6694 24.4688 22.2845 25.1805 21.6133 25.6193C20.037 26.65 17.994 25.5035 17.994 23.6664V21.9954ZM19.9944 32.3343V27.9838C21.4313 28.0957 22.788 27.4845 23.6665 26.427C25.3999 28.516 28.5945 28.523 30.3334 26.4261C31.2096 27.4828 32.5518 28.0935 34.0014 27.9822C33.9938 32.4366 34.0376 32.4002 33.9595 32.822C33.7283 34.0871 32.6238 35.0054 31.3336 35.0054H22.6656C21.1925 35.0054 19.9944 33.8071 19.9944 32.3343ZM5.99226 45.0029C5.99226 44.4492 6.44277 43.9987 6.99649 43.9987H11.0736C10.9769 44.6645 10.9769 45.3416 11.0734 46.007H6.99649C6.44277 46.0072 5.99226 45.5566 5.99226 45.0029ZM17.9981 50.0077C15.88 50.0077 13.9836 48.6671 13.2785 46.6691C12.1253 43.4308 14.5486 39.998 17.9981 39.998C20.7578 39.998 23.0031 42.2431 23.0031 45.0029C23.0029 47.7626 20.7578 50.0077 17.9981 50.0077ZM17.9981 38.0059C15.2782 38.0059 12.8208 39.5884 11.6756 42.0066H8.99273V33.9972H18.3097C18.981 35.7496 20.6798 36.9977 22.6656 36.9977H31.3336C33.2988 36.9977 35.0169 35.7759 35.6919 33.9972H45.0063V42.0066H24.3197C23.1951 39.6435 20.7845 38.0059 17.9981 38.0059ZM46.9985 42.0066V23.9957H50.0069V29.6231C50.0069 32.0349 51.969 33.9972 54.381 33.9972H63.005H63.5492C65.4572 33.9972 67.0097 35.5495 67.0097 37.4579V42.0066H64.3259C63.2013 39.6435 60.7908 38.0059 58.0043 38.0059C55.2178 38.0059 52.8074 39.6435 51.6827 42.0066H46.9985ZM58.0042 50.0077C55.2445 50.0077 52.9993 47.7626 52.9993 45.0029C52.9993 42.2433 55.2444 39.998 58.0042 39.998C60.7638 39.998 63.009 42.2431 63.009 45.0029C63.009 47.7626 60.7639 50.0077 58.0042 50.0077ZM69.0059 46.0072H64.9281C65.0247 45.3388 65.0265 44.6805 64.9281 43.9988H69.0059C69.5596 43.9988 70.0101 44.4494 70.0101 45.0031C70.0101 45.5568 69.5596 46.0072 69.0059 46.0072Z" fill="#69CBE4"/>
<path d="M17.9982 42.0066C16.3461 42.0066 15.0017 43.3508 15.0017 45.0031C15.0017 46.6553 16.346 47.9996 17.9982 47.9996C19.6504 47.9996 20.9947 46.6553 20.9947 45.0031C20.9947 43.3508 19.6503 42.0066 17.9982 42.0066ZM17.9982 46.0072C17.4445 46.0072 16.994 45.5567 16.994 45.0029C16.994 44.4492 17.4445 43.9987 17.9982 43.9987C18.5519 43.9987 19.0024 44.4492 19.0024 45.0029C19.0024 45.5567 18.5518 46.0072 17.9982 46.0072Z" fill="#69CBE4"/>
<path d="M58.0041 42.0066C56.3519 42.0066 55.0076 43.3508 55.0076 45.0031C55.0076 46.6553 56.3518 47.9996 58.0041 47.9996C59.6563 47.9996 61.0005 46.6553 61.0005 45.0031C61.0005 43.3508 59.6563 42.0066 58.0041 42.0066ZM58.0041 46.0072C57.4503 46.0072 56.9998 45.5567 56.9998 45.0029C56.9998 44.4492 57.4503 43.9987 58.0041 43.9987C58.5578 43.9987 59.0083 44.4492 59.0083 45.0029C59.0083 45.5567 58.5578 46.0072 58.0041 46.0072Z" fill="#69CBE4"/>
<path d="M52.0032 35.0056H51.0031C50.4528 35.0056 50.007 35.4515 50.007 36.0017C50.007 36.552 50.4528 36.9979 51.0031 36.9979H52.0032C52.5535 36.9979 52.9993 36.552 52.9993 36.0017C52.9993 35.4515 52.5533 35.0056 52.0032 35.0056Z" fill="#69CBE4"/>
</g>
<defs>
<filter id="filter0_d_13_66" x="0" y="0" width="77" height="60" filterUnits="userSpaceOnUse" color-interpolation-filters="sRGB">
<feFlood flood-opacity="0" result="BackgroundImageFix"/>
<feColorMatrix in="SourceAlpha" type="matrix" values="0 0 0 0 0 0 0 0 0 0 0 0 0 0 0 0 0 0 127 0" result="hardAlpha"/>
<feOffset dy="4"/>
<feGaussianBlur stdDeviation="2"/>
<feComposite in2="hardAlpha" operator="out"/>
<feColorMatrix type="matrix" values="0 0 0 0 0 0 0 0 0 0 0 0 0 0 0 0 0 0 0.25 0"/>
<feBlend mode="normal" in2="BackgroundImageFix" result="effect1_dropShadow_13_66"/>
<feBlend mode="normal" in="SourceGraphic" in2="effect1_dropShadow_13_66" result="shape"/>
</filter>
<clipPath id="clip0_13_66">
<rect width="69" height="52" fill="white" transform="translate(4)"/>
</clipPath>
</defs>
</svg>
