<svg width="60" height="60" viewBox="0 0 60 60" fill="none" xmlns="http://www.w3.org/2000/svg">
<g clip-path="url(#clip0_13_80)" filter="url(#filter0_d_13_80)">
<path d="M54.6828 46.4673C53.8794 45.5252 52.6952 44.9933 51.4648 44.9574C49.4493 44.7967 48.2673 42.4506 49.3624 40.7352L54.6504 32.4515C56.0031 30.3329 55.1678 27.54 53.0049 26.3608C53.3492 25.8203 53.5742 25.4561 53.649 25.314C54.576 23.5537 53.8796 21.3125 52.119 20.3865C50.3385 19.4498 48.1269 20.1358 47.1897 21.9156C47.1283 22.0322 46.9979 22.317 46.8109 22.7405L45.291 21.8734C44.2576 21.2887 43.7989 20.0061 44.4064 18.9315C44.8882 18.0789 43.5698 17.3336 43.0877 18.186C42.0958 19.9407 42.7776 22.2538 44.5508 23.1952L46.2033 24.138C45.3093 26.2152 43.9249 29.4936 42.4286 33.0561C41.3697 31.1518 40.2967 29.2522 39.8182 27.1047C38.6 21.6379 41.3809 16.4776 44.2619 12.1507C45.0478 10.9703 45.2132 9.87136 44.7533 8.88435C43.663 6.54445 39.3242 5.77526 35.6661 5.36647C33.528 5.12754 33.4359 3.72235 33.4359 1.93575C33.4359 -0.650448 26.2661 -0.640046 26.2661 1.93575C26.2661 3.64995 26.2371 5.12472 24.1341 5.35244C20.3258 5.76384 15.8187 6.53526 14.7595 8.86889C14.4724 9.50146 14.3243 10.533 15.2498 11.8543C17.0231 14.3859 18.2764 16.6685 19.0813 18.8323C19.5113 19.988 19.8123 21.1175 19.9879 22.217L18.7041 22.2453C18.6943 22.2455 18.6845 22.2459 18.6746 22.2465C12.8339 22.6029 8.64095 24.2852 6.21219 27.2469C4.4578 29.3861 3.70971 32.1944 4.10183 35.1597V45.8825C4.10183 47.2616 5.02573 48.7868 6.57321 49.962C8.30336 51.2762 10.6383 52 13.1478 52C18.6338 52 23.6572 47.5471 23.8684 47.3576C24.0284 47.2139 24.1199 47.0091 24.1199 46.794V46.7748H27.4181V51.1808C27.4181 52.1601 28.9328 52.1601 28.9328 51.1808V46.7748H30.7689V51.1808C30.7689 52.1601 32.2837 52.1601 32.2837 51.1808V46.7748H36.6918C35.7311 49.0798 35.0726 50.6627 34.9655 50.9201C34.6278 51.732 35.8107 52.3567 36.2949 51.6312C36.4761 51.3596 37.749 49.4513 39.5305 46.7748H43.4794C44.6386 46.7748 45.5816 45.828 45.5816 44.6641C45.5816 42.49 45.348 40.5484 44.8684 38.7413C47.6858 34.4923 50.5181 30.2041 52.1836 27.6359C53.5901 28.471 54.345 30.1144 53.3735 31.6364L48.0854 39.92C46.3812 42.5896 48.201 46.2167 51.3442 46.4673C53.0937 46.5265 54.1766 47.835 54.1766 49.5136V51.2109C54.1766 52.1902 55.6913 52.1902 55.6913 51.2109V49.5424C55.7731 48.4175 55.4156 47.3266 54.6828 46.4673ZM6.12888 30.3155V32.8117C6.12888 33.7909 7.64364 33.7909 7.64364 32.8117V27.9064C8.11422 27.3836 8.6557 26.9086 9.26776 26.4821V27.7636C9.26776 28.7428 10.7825 28.7428 10.7825 27.7636V25.5946C11.3702 25.3058 12.005 25.0498 12.6855 24.8264V29.1816C12.6855 30.1608 14.2002 30.1608 14.2002 29.1816V24.4004C14.7907 24.2601 15.4105 24.1411 16.0581 24.0421V25.7461C16.0581 26.7254 17.5729 26.7254 17.5729 25.7461V23.8537C18.4342 23.7695 19.2865 23.7476 20.1504 23.7286C20.3353 27.1922 18.923 30.0906 17.2871 33.0306C11.9542 33.5393 8.55815 35.7094 7.28918 37.8289C6.1822 36.9186 5.61659 35.8639 5.61659 35.113C5.61659 35.109 5.61608 35.1053 5.61598 35.1014C5.61578 35.0881 5.61487 35.0748 5.61396 35.0615C5.61305 35.0481 5.61214 35.0348 5.61053 35.0217C5.61002 35.0179 5.61002 35.014 5.60952 35.0102C5.43401 33.7285 5.43643 32.0277 6.12888 30.3155ZM13.1478 39.7158C11.2722 39.7158 9.73673 39.2842 8.55219 38.6613C9.00399 37.8577 9.89628 37.0458 11.0893 36.3692C12.1524 35.7663 13.8919 35.0246 16.4149 34.6589C15.7063 36.061 15.0611 37.6156 14.6339 39.5662C14.143 39.6619 13.646 39.7158 13.1478 39.7158ZM5.61659 45.8826V38.3411C6.10394 38.8524 6.66702 39.297 7.26767 39.6683V41.7729C7.26767 42.7521 8.78243 42.7521 8.78243 41.7729V40.4265C9.38288 40.6655 10.019 40.852 10.6801 40.9858V45.5452C10.6801 46.5245 12.1949 46.5245 12.1949 45.5452V41.1951C12.8261 41.2421 13.4623 41.2452 14.0926 41.178V42.8415C14.0926 43.8207 15.6073 43.8207 15.6073 42.8415V40.8972C16.2844 40.7195 16.9422 40.4794 17.5724 40.1993V49.5035C16.206 50.0718 14.6852 50.4853 13.1478 50.4853C8.20319 50.4853 5.61659 47.4888 5.61659 45.8826ZM22.6051 46.4438C22.0825 46.8749 20.7861 47.8844 19.0871 48.7866V39.4271C20.5304 38.5979 21.7513 37.6348 22.6051 36.8843V46.4438ZM24.1199 45.26V35.113C24.1199 34.4378 23.2653 34.1038 22.8067 34.5985C22.7697 34.6384 19.8828 37.716 16.3132 39.0786C16.9349 36.7691 17.9027 35.0333 18.8445 33.3484C19.8252 31.5938 20.8394 29.7794 21.3621 27.4339C21.9923 24.6057 21.7026 21.534 20.501 18.304C19.6505 16.0179 18.3387 13.6239 16.4905 10.9852C15.8665 10.0944 16.0714 9.64314 16.1388 9.49479C16.521 8.65279 18.2465 7.51177 24.2968 6.85831C27.215 6.54304 27.7808 4.46459 27.7808 1.93565C27.7808 1.58978 31.9212 1.61452 31.9212 1.93565C31.9212 4.53921 32.5142 6.53768 35.4979 6.87174C36.4896 6.98252 38.3355 7.18883 40.012 7.63487C42.3594 8.25946 43.1394 9.00694 43.3803 9.52408C43.4628 9.7012 43.714 10.2403 43.0009 11.3111C39.9429 15.9039 36.9976 21.4113 38.3397 27.4339C38.9417 30.1352 40.4043 32.431 41.6774 34.8462C40.1468 38.4961 38.5672 42.2781 37.3235 45.2601L24.1199 45.26ZM44.067 44.6641C44.067 44.9927 43.8034 45.26 43.4795 45.26H40.5386C41.5181 43.7877 42.5996 42.1605 43.7094 40.4884C43.9492 41.7819 44.067 43.1615 44.067 44.6641ZM39.3768 44.2715C43.3229 34.8156 48.0801 23.4754 48.5299 22.6212C49.0669 21.6014 50.3944 21.1906 51.414 21.727C52.4237 22.2579 52.8454 23.5892 52.3089 24.6079C52.2415 24.7359 52.0261 25.0833 51.6921 25.6063L50.5511 24.9506L50.8429 24.4167C51.3125 23.5574 49.9834 22.8307 49.5138 23.6901L48.228 26.0422C47.7701 26.8802 49.0929 27.6182 49.5572 26.7688L49.8244 26.28L50.8699 26.8808C48.4387 30.6235 43.4307 38.1763 39.3768 44.2715Z" fill="#69CBE4"/>
</g>
<defs>
<filter id="filter0_d_13_80" x="0" y="0" width="60" height="60" filterUnits="userSpaceOnUse" color-interpolation-filters="sRGB">
<feFlood flood-opacity="0" result="BackgroundImageFix"/>
<feColorMatrix in="SourceAlpha" type="matrix" values="0 0 0 0 0 0 0 0 0 0 0 0 0 0 0 0 0 0 127 0" result="hardAlpha"/>
<feOffset dy="4"/>
<feGaussianBlur stdDeviation="2"/>
<feComposite in2="hardAlpha" operator="out"/>
<feColorMatrix type="matrix" values="0 0 0 0 0 0 0 0 0 0 0 0 0 0 0 0 0 0 0.25 0"/>
<feBlend mode="normal" in2="BackgroundImageFix" result="effect1_dropShadow_13_80"/>
<feBlend mode="normal" in="SourceGraphic" in2="effect1_dropShadow_13_80" result="shape"/>
</filter>
<clipPath id="clip0_13_80">
<rect width="52" height="52" fill="white" transform="translate(4)"/>
</clipPath>
</defs>
</svg>
