<svg width="107" height="67" viewBox="0 0 107 67" fill="none" xmlns="http://www.w3.org/2000/svg">
<g filter="url(#filter0_d_13_72)">
<path d="M75.4453 23.9111L75.83 24.5483L76.5659 24.2887C78.6343 23.5594 80.8762 23.1587 83.2191 23.1587C93.5743 23.1587 102 30.9742 102 40.5792C102 50.1845 93.574 58 83.2188 58C73.807 58 65.9875 51.5423 64.643 43.1523L64.5272 42.4303H63.7402H53.6847C53.0372 42.4303 52.4272 42.1387 52.0526 41.6446L36.6209 21.3016L35.6905 20.0751L35.0391 21.4478L33.4512 24.7941L33.1349 25.4608L33.7983 25.8504C39.0631 28.9425 42.5621 34.39 42.5621 40.5793C42.5621 50.1845 34.1362 58 23.781 58C13.4259 58 5 50.1845 5 40.5793C5 30.9742 13.4259 23.1586 23.7813 23.1582C25.4923 23.1582 27.1497 23.3729 28.7255 23.7721L29.4843 23.9645L29.8013 23.2966L38.0607 5.88961L38.6242 4.70205H37.2254H32.0156C30.9135 4.70205 30.0201 3.87327 30.0201 2.85103C30.0201 1.82878 30.9135 1 32.0156 1H41.6827C42.357 1 42.9857 1.31579 43.3539 1.83946C43.7223 2.36312 43.7809 3.02424 43.5091 3.59677L38.9102 13.2895L38.3466 14.4771H39.7454H65.673H66.5857V13.6305V10.7244V9.87786H65.673H61.5651C60.463 9.87786 59.5695 9.04908 59.5695 8.02684C59.5695 7.00458 60.463 6.1758 61.5651 6.1758H72.609C73.7111 6.1758 74.6046 7.00458 74.6046 8.02684C74.6046 9.04908 73.7111 9.87786 72.609 9.87786H71.4895H70.5768V10.7244V15.6243V15.8452L70.6932 16.0378L75.4453 23.9111ZM27.4215 28.3128L27.8764 27.3542L26.7705 27.1427C25.8043 26.9579 24.8044 26.8606 23.7813 26.8606C15.6252 26.8606 8.99134 33.014 8.99134 40.5793C8.99134 48.1446 15.6252 54.2979 23.7813 54.2979C31.9374 54.2979 38.5712 48.1446 38.5712 40.5793C38.5712 36.0103 36.1488 31.9605 32.4414 29.4679L31.5259 28.8525L31.0705 29.8124L25.6079 41.3252C25.2796 42.0171 24.5491 42.4312 23.7799 42.4312C23.5128 42.4312 23.2408 42.3811 22.9774 42.2735C21.9688 41.862 21.5109 40.7699 21.9549 39.8339L27.4215 28.3128ZM74.8542 30.5092L74.3022 29.5947L73.4544 30.2876C71.1191 32.1963 69.4343 34.7765 68.7586 37.7045L68.5223 38.7282H69.651H78.2581H79.8149L79.0544 37.4683L74.8542 30.5092ZM52.6798 36.0382L53.5073 37.129L54.2192 35.9701L61.1037 24.7621L64.37 19.4447L65.1475 18.1791H63.5771H40.8902H39.1321L40.1438 19.5128L52.6798 36.0382ZM63.7404 38.7285H64.5274L64.6431 38.0064C65.3698 33.4733 67.9872 29.502 71.73 26.8088L72.3508 26.3622L71.967 25.7264L69.3555 21.3997L68.5661 20.092L67.7661 21.3943L57.8959 37.4628L57.1186 38.7285H58.6889H63.7404ZM69.6508 42.4303H68.5221L68.7584 43.4542C70.1869 49.6422 76.1243 54.2979 83.2191 54.2979C91.3752 54.2979 98.0088 48.1446 98.0088 40.5791C98.0088 33.0138 91.3749 26.8605 83.2188 26.8605C81.7023 26.8605 80.2378 27.0742 78.858 27.4698L77.7799 27.7788L78.3311 28.6921L84.9603 39.6749C85.3062 40.2482 85.2987 40.9488 84.9407 41.5153C84.5827 42.0819 83.9274 42.4303 83.2191 42.4303H69.6508Z" fill="#69CBE4"/>
<path d="M43.5091 3.59677C43.7809 3.02424 43.7223 2.36312 43.3539 1.83946C42.9857 1.31579 42.357 1 41.6827 1H32.0156C30.9135 1 30.0201 1.82878 30.0201 2.85103C30.0201 3.87327 30.9135 4.70205 32.0156 4.70205H37.2254H38.6242L38.0607 5.88961L29.8013 23.2966L29.4843 23.9645L28.7255 23.7721C27.1497 23.3729 25.4923 23.1582 23.7813 23.1582C13.4259 23.1586 5 30.9742 5 40.5793C5 50.1845 13.4259 58 23.781 58C34.1362 58 42.5621 50.1845 42.5621 40.5793C42.5621 34.39 39.0631 28.9425 33.7983 25.8504L33.1349 25.4608L33.4512 24.7941L35.0391 21.4478L35.6905 20.0751L36.6209 21.3016L52.0526 41.6446C52.4272 42.1387 53.0372 42.4303 53.6847 42.4303H63.7402H64.5272L64.643 43.1523C65.9875 51.5423 73.807 58 83.2188 58C93.574 58 102 50.1845 102 40.5792C102 30.9742 93.5743 23.1587 83.2191 23.1587C80.8762 23.1587 78.6343 23.5594 76.5659 24.2887L75.83 24.5483L75.4453 23.9111L70.6932 16.0378L70.5768 15.8452V15.6243V10.7244V9.87786H71.4895H72.609C73.7111 9.87786 74.6046 9.04908 74.6046 8.02684C74.6046 7.00458 73.7111 6.1758 72.609 6.1758H61.5651C60.463 6.1758 59.5695 7.00458 59.5695 8.02684C59.5695 9.04908 60.463 9.87786 61.5651 9.87786H65.673H66.5857V10.7244V13.6305V14.4771H65.673H39.7454H38.3466L38.9102 13.2895L43.5091 3.59677ZM43.5091 3.59677L44.3445 3.93779M27.4215 28.3128L27.8764 27.3542L26.7705 27.1427C25.8043 26.9579 24.8044 26.8606 23.7813 26.8606C15.6252 26.8606 8.99134 33.014 8.99134 40.5793C8.99134 48.1446 15.6252 54.2979 23.7813 54.2979C31.9374 54.2979 38.5712 48.1446 38.5712 40.5793C38.5712 36.0103 36.1488 31.9605 32.4414 29.4679L31.5259 28.8525L31.0705 29.8124L25.6079 41.3252C25.2796 42.0171 24.5491 42.4312 23.7799 42.4312C23.5128 42.4312 23.2408 42.3811 22.9774 42.2735C21.9688 41.862 21.5109 40.7699 21.9549 39.8339L27.4215 28.3128ZM74.8542 30.5092L74.3022 29.5947L73.4544 30.2876C71.1191 32.1963 69.4343 34.7765 68.7586 37.7045L68.5223 38.7282H69.651H78.2581H79.8149L79.0544 37.4683L74.8542 30.5092ZM52.6798 36.0382L53.5073 37.129L54.2192 35.9701L61.1037 24.7621L64.37 19.4447L65.1475 18.1791H63.5771H40.8902H39.1321L40.1438 19.5128L52.6798 36.0382ZM63.7404 38.7285H64.5274L64.6431 38.0064C65.3698 33.4733 67.9872 29.502 71.73 26.8088L72.3508 26.3622L71.967 25.7264L69.3555 21.3997L68.5661 20.092L67.7661 21.3943L57.8959 37.4628L57.1186 38.7285H58.6889H63.7404ZM69.6508 42.4303H68.5221L68.7584 43.4542C70.1869 49.6422 76.1243 54.2979 83.2191 54.2979C91.3752 54.2979 98.0088 48.1446 98.0088 40.5791C98.0088 33.0138 91.3749 26.8605 83.2188 26.8605C81.7023 26.8605 80.2378 27.0742 78.858 27.4698L77.7799 27.7788L78.3311 28.6921L84.9603 39.6749C85.3062 40.2482 85.2987 40.9488 84.9407 41.5153C84.5827 42.0819 83.9274 42.4303 83.2191 42.4303H69.6508Z" stroke="white" stroke-width="1.5"/>
</g>
<defs>
<filter id="filter0_d_13_72" x="0.25" y="0.25" width="106.5" height="66.5" filterUnits="userSpaceOnUse" color-interpolation-filters="sRGB">
<feFlood flood-opacity="0" result="BackgroundImageFix"/>
<feColorMatrix in="SourceAlpha" type="matrix" values="0 0 0 0 0 0 0 0 0 0 0 0 0 0 0 0 0 0 127 0" result="hardAlpha"/>
<feOffset dy="4"/>
<feGaussianBlur stdDeviation="2"/>
<feComposite in2="hardAlpha" operator="out"/>
<feColorMatrix type="matrix" values="0 0 0 0 0 0 0 0 0 0 0 0 0 0 0 0 0 0 0.25 0"/>
<feBlend mode="normal" in2="BackgroundImageFix" result="effect1_dropShadow_13_72"/>
<feBlend mode="normal" in="SourceGraphic" in2="effect1_dropShadow_13_72" result="shape"/>
</filter>
</defs>
</svg>
