<svg width="66" height="60" viewBox="0 0 66 60" fill="none" xmlns="http://www.w3.org/2000/svg">
<g clip-path="url(#clip0_13_75)" filter="url(#filter0_d_13_75)">
<path d="M58.2225 35.1013V32.0097C58.2225 29.1266 55.877 26.7812 52.9941 26.7812H32.9702C32.5041 26.7812 32.1262 27.159 32.1262 27.6252C32.1262 28.0914 32.5041 28.4692 32.9702 28.4692H52.9941C54.9464 28.4692 56.5347 30.0574 56.5347 32.0098V35.1014C54.6651 35.4919 53.2565 37.1526 53.2565 39.1362V42.2706H26.291V39.1362C26.291 37.1525 24.8824 35.4919 23.0129 35.1014V32.0098C23.0129 30.0574 24.6013 28.4692 26.5535 28.4692H29.5945C30.0606 28.4692 30.4385 28.0914 30.4385 27.6252C30.4385 27.159 30.0606 26.7812 29.5945 26.7812H26.5535C23.6705 26.7812 21.3251 29.1268 21.3251 32.0097V35.1013C19.4556 35.4918 18.0469 37.1525 18.0469 39.1361V51.1559C18.0469 51.6221 18.4247 51.9999 18.8909 51.9999H44.9213C45.3875 51.9999 45.7653 51.6221 45.7653 51.1559C45.7653 50.6897 45.3875 50.3119 44.9213 50.3119H26.291V43.9583H53.2565V50.3119H48.297C47.8309 50.3119 47.4531 50.6897 47.4531 51.1559C47.4531 51.6221 47.8309 51.9999 48.297 51.9999H60.6568C61.1229 51.9999 61.5007 51.6221 61.5007 51.1559V39.1362C61.5006 37.1525 60.092 35.4919 58.2225 35.1013ZM19.7347 39.1362C19.7347 37.7941 20.8267 36.7021 22.169 36.7021C23.5112 36.7021 24.6032 37.7941 24.6032 39.1362V50.312H19.7347V39.1362ZM59.8128 50.312H54.9443V39.1362C54.9443 37.7941 56.0363 36.7021 57.3785 36.7021C58.7207 36.7021 59.8127 37.7941 59.8127 39.1362L59.8128 50.312Z" fill="#69CBE4"/>
<path d="M25.5043 20.7588C25.5455 21.1843 25.9162 21.5204 26.3441 21.5204H53.2033C53.6623 21.5204 54.0473 21.1355 54.0473 20.6764V0.843979C54.0473 0.384873 53.6624 0 53.2033 0H48.297C47.8308 0 47.453 0.377797 47.453 0.843979C47.453 1.31016 47.8308 1.68796 48.297 1.68796H51.1658L49.6034 3.25036H29.9438L28.3814 1.68796H44.9211C45.3872 1.68796 45.765 1.31016 45.765 0.843979C45.765 0.377797 45.3872 0 44.9211 0H26.344C25.8845 0 25.5 0.385434 25.5 0.843979V20.6764C25.5001 20.7036 25.5016 20.7318 25.5043 20.7588ZM28.3814 19.8326L29.9438 18.27H49.6033L51.1657 19.8326H28.3814ZM49.1091 16.5821H41.4413L40.0344 15.0195L44.5969 9.95154C44.8682 9.65 45.3506 9.65438 45.6208 9.95446L49.1091 13.7917V16.5821ZM39.17 16.5821H30.4383V15.9665L34.1317 11.864C34.3406 11.632 34.7136 11.6319 34.9224 11.864L39.17 16.5821ZM52.3593 2.88155V18.6389L50.7969 17.0765V4.44395L52.3593 2.88155ZM49.1091 11.2825L46.8726 8.82219C45.9433 7.78999 44.2718 7.78999 43.3425 8.82219L38.8988 13.758L36.1768 10.7346C35.7566 10.2678 35.1553 10.0001 34.5271 10.0001C33.9031 10.0001 33.2948 10.2709 32.8773 10.7346L30.4383 13.4438V4.9382H49.1091V11.2825ZM28.7504 4.44395V17.0766L27.188 18.639V2.88155L28.7504 4.44395Z" fill="#69CBE4"/>
<path d="M13.5115 47.271H12.6834V18.0626H14.8512V27.6116C14.8512 28.0778 15.2291 28.4556 15.6952 28.4556C16.1612 28.4556 16.5391 28.0778 16.5391 27.6116V18.0626H18.8355C19.3688 18.0626 19.7771 17.5508 19.6582 17.0305L16.6987 4.08531C16.611 3.70156 16.2696 3.42944 15.876 3.42944H7.80298C7.40934 3.42944 7.06793 3.70156 6.98022 4.08531L4.02074 17.0305C3.90181 17.5508 4.31015 18.0626 4.84349 18.0626H10.9956V47.2709H10.1676C8.0952 47.2709 6.40926 48.9568 6.40926 51.0291V51.1559C6.40926 51.622 6.78717 51.9998 7.25324 51.9998H16.4258C16.8919 51.9998 17.2698 51.622 17.2698 51.1559V51.0291C17.2697 48.9569 15.5838 47.271 13.5115 47.271ZM8.4758 5.1174H15.2033L17.7769 16.3747H5.90209L8.4758 5.1174ZM8.22513 50.312C8.51747 49.5228 9.27778 48.9588 10.1675 48.9588H13.5114C14.4011 48.9588 15.1614 49.5227 15.4537 50.312H8.22513Z" fill="#69CBE4"/>
<path d="M38.8989 10.6259C40.2131 10.6259 41.2821 9.55671 41.2821 8.24262C41.2821 6.92842 40.213 5.85938 38.8989 5.85938C37.5847 5.85938 36.5156 6.92853 36.5156 8.24262C36.5156 9.55671 37.5847 10.6259 38.8989 10.6259ZM38.8989 7.54722C39.2823 7.54722 39.5943 7.85921 39.5943 8.24262C39.5943 8.62603 39.2823 8.93801 38.8989 8.93801C38.5155 8.93801 38.2035 8.62603 38.2035 8.24262C38.2035 7.85909 38.5155 7.54722 38.8989 7.54722Z" fill="#69CBE4"/>
</g>
<defs>
<filter id="filter0_d_13_75" x="0" y="0" width="66" height="60" filterUnits="userSpaceOnUse" color-interpolation-filters="sRGB">
<feFlood flood-opacity="0" result="BackgroundImageFix"/>
<feColorMatrix in="SourceAlpha" type="matrix" values="0 0 0 0 0 0 0 0 0 0 0 0 0 0 0 0 0 0 127 0" result="hardAlpha"/>
<feOffset dy="4"/>
<feGaussianBlur stdDeviation="2"/>
<feComposite in2="hardAlpha" operator="out"/>
<feColorMatrix type="matrix" values="0 0 0 0 0 0 0 0 0 0 0 0 0 0 0 0 0 0 0.25 0"/>
<feBlend mode="normal" in2="BackgroundImageFix" result="effect1_dropShadow_13_75"/>
<feBlend mode="normal" in="SourceGraphic" in2="effect1_dropShadow_13_75" result="shape"/>
</filter>
<clipPath id="clip0_13_75">
<rect width="58" height="52" fill="white" transform="translate(4)"/>
</clipPath>
</defs>
</svg>
