<svg width="60" height="60" viewBox="0 0 60 60" fill="none" xmlns="http://www.w3.org/2000/svg">
<g clip-path="url(#clip0_13_58)" filter="url(#filter0_d_13_58)">
<path d="M54.9844 20.9725H46.6562V18.8228C46.6562 18.2618 46.2014 17.8071 45.6406 17.8071H23.7031C23.1423 17.8071 22.6875 18.2618 22.6875 18.8228C22.6875 19.3837 23.1423 19.8384 23.7031 19.8384H44.625V27.6248C44.625 34.4648 40.9731 40.822 35.0763 44.281H15.5799C9.68313 40.8221 6.03125 34.4648 6.03125 27.6249V19.8385H12.8359C13.3968 19.8385 13.8516 19.3838 13.8516 18.8229C13.8516 18.2619 13.3968 17.8072 12.8359 17.8072H5.01562C4.4548 17.8072 4 18.2619 4 18.8229V27.6249C4 31.4639 5.03187 35.2282 6.98411 38.5106C8.30066 40.7244 10.0089 42.6793 12.0094 44.2811H5.01562C4.4548 44.2811 4 44.7358 4 45.2967C4 48.9929 7.00696 51.9999 10.7031 51.9999H42.3906C46.0868 51.9999 49.0937 48.9929 49.0937 45.2967C49.0937 44.7358 48.6389 44.2811 48.0781 44.2811H38.6468C40.488 42.8068 42.0808 41.0328 43.3494 39.0337H46.2162C51.611 39.0337 56 34.6447 56 29.2499V21.9882C56 21.4272 55.5453 20.9725 54.9844 20.9725ZM46.9513 46.3124C46.4863 48.4017 44.618 49.9686 42.3906 49.9686H10.7031C8.47576 49.9686 6.60751 48.4017 6.14246 46.3124H15.3079H35.3484H46.9513ZM46.6562 27.6249V27.0663H49.9062V29.2499C49.9062 31.2846 48.2509 32.9399 46.2162 32.9399H45.9855C46.4288 31.2128 46.6562 29.4271 46.6562 27.6249ZM53.9687 29.2499C53.9687 33.5246 50.4909 37.0024 46.2162 37.0024H44.4876C44.8119 36.3401 45.1015 35.6621 45.3546 34.9712H46.2162C49.371 34.9712 51.9375 32.4046 51.9375 29.2499V26.0506C51.9375 25.4897 51.4827 25.035 50.9219 25.035H46.6562V23.0038H53.9687V29.2499Z" fill="#69CBE4"/>
<path d="M26.298 5.6208L25.7695 4.9573C24.9938 3.98352 24.9927 2.62228 25.7668 1.64707C26.1156 1.20771 26.042 0.568886 25.6027 0.220222C25.1632 -0.128645 24.5245 -0.0550129 24.1757 0.384347C22.8105 2.10441 22.8125 4.50524 24.1807 6.22287L24.7091 6.88637C25.7228 8.15895 25.7243 9.93782 24.7128 11.2123L24.1712 11.8946C23.8225 12.334 23.896 12.9728 24.3354 13.3215C24.5221 13.4697 24.7449 13.5417 24.9661 13.5417C25.2653 13.5417 25.5617 13.41 25.7623 13.1573L26.3039 12.4751C27.9065 10.4558 27.9042 7.63723 26.298 5.6208Z" fill="#69CBE4"/>
<path d="M31.9275 7.9045L31.3991 7.24109C30.6233 6.26721 30.6222 4.90597 31.3963 3.93076C31.7451 3.4914 31.6715 2.85258 31.2322 2.50391C30.7927 2.15505 30.154 2.22868 29.8052 2.66804C28.44 4.3881 28.4421 6.78893 29.8102 8.50666L30.3386 9.17017C31.3522 10.4428 31.3538 12.2218 30.3422 13.4962L29.8008 14.1784C29.452 14.6178 29.5255 15.2566 29.9649 15.6053C30.1517 15.7534 30.3744 15.8254 30.5956 15.8254C30.8948 15.8254 31.1914 15.6936 31.3918 15.441L31.9332 14.7588C33.5359 12.7397 33.5336 9.92112 31.9275 7.9045Z" fill="#69CBE4"/>
<path d="M20.6686 7.90449L20.1402 7.24109C19.3644 6.2673 19.3633 4.90596 20.1373 3.93076C20.4861 3.4914 20.4125 2.85257 19.9732 2.50381C19.5337 2.15504 18.895 2.22878 18.5462 2.66793C17.1811 4.38799 17.1832 6.78893 18.5513 8.50655L19.0797 9.17006C20.0933 10.4427 20.0949 12.2217 19.0834 13.496L18.5419 14.1782C18.1931 14.6176 18.2665 15.2564 18.7059 15.6052C18.8927 15.7533 19.1153 15.8253 19.3366 15.8253C19.6358 15.8253 19.9323 15.6937 20.1327 15.4411L20.6744 14.7588C22.277 12.7397 22.2747 9.92112 20.6686 7.90449Z" fill="#69CBE4"/>
<path d="M19.2628 18.1045C19.0739 17.9156 18.8119 17.8069 18.5448 17.8069C18.2777 17.8069 18.0157 17.9156 17.8268 18.1045C17.6379 18.2944 17.5292 18.5554 17.5292 18.8225C17.5292 19.0896 17.6378 19.3516 17.8268 19.5416C18.0157 19.7305 18.2777 19.8381 18.5448 19.8381C18.8119 19.8381 19.0739 19.7305 19.2628 19.5416C19.4527 19.3516 19.5604 19.0906 19.5604 18.8225C19.5604 18.5554 19.4527 18.2934 19.2628 18.1045Z" fill="#69CBE4"/>
<path d="M40.7656 26.6094C40.2048 26.6094 39.75 27.0641 39.75 27.625C39.75 31.3949 38.2209 35.0998 35.5546 37.7897C35.1598 38.188 35.1627 38.8311 35.561 39.226C35.7591 39.4223 36.0176 39.5203 36.276 39.5203C36.5375 39.5202 36.7989 39.4199 36.9974 39.2195C40.0376 36.1523 41.7812 31.9263 41.7812 27.625C41.7812 27.0641 41.3264 26.6094 40.7656 26.6094Z" fill="#69CBE4"/>
<path d="M33.8476 40.5461C33.572 40.0575 32.9526 39.885 32.4641 40.1605L32.4409 40.1736C31.9523 40.4492 31.7797 41.0687 32.0553 41.5572C32.2419 41.8881 32.5861 42.074 32.9408 42.074C33.1098 42.074 33.2812 42.0317 33.4389 41.9428L33.462 41.9297C33.9506 41.6541 34.1232 41.0346 33.8476 40.5461Z" fill="#69CBE4"/>
</g>
<defs>
<filter id="filter0_d_13_58" x="0" y="0" width="60" height="60" filterUnits="userSpaceOnUse" color-interpolation-filters="sRGB">
<feFlood flood-opacity="0" result="BackgroundImageFix"/>
<feColorMatrix in="SourceAlpha" type="matrix" values="0 0 0 0 0 0 0 0 0 0 0 0 0 0 0 0 0 0 127 0" result="hardAlpha"/>
<feOffset dy="4"/>
<feGaussianBlur stdDeviation="2"/>
<feComposite in2="hardAlpha" operator="out"/>
<feColorMatrix type="matrix" values="0 0 0 0 0 0 0 0 0 0 0 0 0 0 0 0 0 0 0.25 0"/>
<feBlend mode="normal" in2="BackgroundImageFix" result="effect1_dropShadow_13_58"/>
<feBlend mode="normal" in="SourceGraphic" in2="effect1_dropShadow_13_58" result="shape"/>
</filter>
<clipPath id="clip0_13_58">
<rect width="52" height="52" fill="white" transform="translate(4)"/>
</clipPath>
</defs>
</svg>
