<svg width="58" height="60" viewBox="0 0 58 60" fill="none" xmlns="http://www.w3.org/2000/svg">
<g clip-path="url(#clip0_13_73)" filter="url(#filter0_d_13_73)">
<path d="M53.8471 12.328C53.8344 12.2941 53.8185 12.2638 53.8024 12.2316C53.762 12.1503 53.7121 12.0766 53.652 12.0084C53.6306 11.9841 53.6128 11.9588 53.5893 11.9366C53.5054 11.8574 53.4117 11.7877 53.3025 11.7391L46.6433 8.77976C47.2176 7.97608 47.6036 7.04323 47.6698 5.95613C47.8283 3.33379 46.0956 1.04508 43.3575 0.261016C41.2308 -0.348359 38.8349 0.128477 36.4309 1.64023C35.6928 2.10495 34.97 2.66462 34.2746 3.28339L29.3825 1.10906C29.1139 0.989727 28.8077 0.988711 28.5375 1.10906L23.6615 3.27609C21.4879 1.36513 18.9703 0 16.4389 0C15.7985 0 15.1668 0.0878516 14.562 0.261016C11.8234 1.04508 10.0907 3.33379 10.2502 5.95664C10.3165 7.04349 10.7025 7.97615 11.2767 8.77976L4.6175 11.7391C4.50845 11.7877 4.41495 11.8574 4.33103 11.9365C4.30742 11.9587 4.28958 11.9842 4.26806 12.0086C4.20808 12.0767 4.15812 12.1503 4.11775 12.2315C4.10169 12.2637 4.08582 12.294 4.07306 12.3281C4.03002 12.4428 4 12.5628 4 12.6897V40.3295C4 40.7403 4.24223 41.113 4.6175 41.2796L28.5375 51.9101C28.5528 51.917 28.5699 51.9142 28.5854 51.9203C28.7063 51.9674 28.8315 52 28.96 52C29.0885 52 29.2137 51.9674 29.3346 51.9203C29.3501 51.9142 29.3672 51.917 29.3825 51.9101L53.3025 41.2796C53.6783 41.113 53.92 40.7403 53.92 40.3295V12.6897C53.92 12.5628 53.89 12.4428 53.8471 12.328ZM27.92 23.9965V49.3599L17.52 44.7378V19.3745L27.92 23.9965ZM28.96 22.1819L19.0763 17.7895L27.2944 14.2193C27.3106 14.2122 27.3205 14.1979 27.3363 14.1901C27.7022 14.2167 28.0709 14.246 28.4344 14.2716C28.4344 14.2716 28.9676 14.3051 28.9783 14.3051C29.0103 14.3051 29.4846 14.2721 29.4846 14.2721C29.8485 14.2464 30.2178 14.2171 30.5842 14.1904C30.5998 14.1981 30.6095 14.2123 30.6256 14.2193L38.8438 17.7896L28.96 22.1819ZM41.4239 16.6429L34.848 13.7862C36.3174 13.6033 37.7866 13.3663 39.2361 13.0025C40.6533 12.6471 43.1665 11.8492 45.0851 10.364L50.3196 12.6897L41.4239 16.6429ZM37.539 3.40082C38.9365 2.52078 40.2538 2.07898 41.4735 2.07898C41.9245 2.07898 42.3622 2.13941 42.7847 2.26078C44.2645 2.6843 45.7077 3.9523 45.5939 5.82969C45.4365 8.40125 41.9458 10.1791 38.7303 10.9855C36.0247 11.6639 33.1779 11.9194 30.39 12.122C31.4188 9.48137 34.1783 5.51637 37.539 3.40082ZM28.96 3.19719L32.685 4.85272C31.136 6.54507 29.8272 8.46727 28.9688 10.2119C28.1269 8.46917 26.8354 6.54507 25.2662 4.83914L28.96 3.19719ZM15.1348 2.26078C15.5532 2.14094 15.992 2.08 16.4389 2.08C20.9249 2.08 26.0426 8.21031 27.5391 12.123C24.7482 11.9199 21.8984 11.665 19.1897 10.9855C15.9747 10.1791 12.483 8.40125 12.3261 5.83019C12.2123 3.95281 13.6545 2.6843 15.1348 2.26078ZM12.8349 10.3641C14.7533 11.8492 17.2663 12.6471 18.6839 13.0025C20.1334 13.3663 21.6026 13.6034 23.072 13.7862L16.4962 16.6429L7.6009 12.6897L12.8349 10.3641ZM6.08 14.2903L15.44 18.4501V43.8134L6.08 39.6536V14.2903ZM30 23.9965L40.4 19.3745V44.7378L30 49.3599V23.9965ZM42.48 43.8134V18.4501L51.84 14.2903V39.6536L42.48 43.8134Z" fill="#69CBE4"/>
</g>
<defs>
<filter id="filter0_d_13_73" x="0" y="0" width="58" height="60" filterUnits="userSpaceOnUse" color-interpolation-filters="sRGB">
<feFlood flood-opacity="0" result="BackgroundImageFix"/>
<feColorMatrix in="SourceAlpha" type="matrix" values="0 0 0 0 0 0 0 0 0 0 0 0 0 0 0 0 0 0 127 0" result="hardAlpha"/>
<feOffset dy="4"/>
<feGaussianBlur stdDeviation="2"/>
<feComposite in2="hardAlpha" operator="out"/>
<feColorMatrix type="matrix" values="0 0 0 0 0 0 0 0 0 0 0 0 0 0 0 0 0 0 0.25 0"/>
<feBlend mode="normal" in2="BackgroundImageFix" result="effect1_dropShadow_13_73"/>
<feBlend mode="normal" in="SourceGraphic" in2="effect1_dropShadow_13_73" result="shape"/>
</filter>
<clipPath id="clip0_13_73">
<rect width="50" height="52" fill="white" transform="translate(4)"/>
</clipPath>
</defs>
</svg>
